# WaveFront *.obj file (generated by Autodesk ATF)

mtllib Pinhole v1.mtl

g Body1

v 0.018195 0.111641 0.000000
v 0.019899 0.124582 0.000000
v 0.024894 0.136641 0.000000
v 0.032840 0.146997 0.000000
v 0.043195 0.154943 0.000000
v 0.055254 0.159938 0.000000
v 0.068195 0.161641 0.000000
v 0.081136 0.159938 0.000000
v 0.093195 0.154943 0.000000
v 0.103550 0.146997 0.000000
v 0.111496 0.136641 0.000000
v 0.116491 0.124582 0.000000
v 0.118195 0.111641 0.000000
v 0.116491 0.098700 0.000000
v 0.111496 0.086641 0.000000
v 0.103550 0.076286 0.000000
v 0.093195 0.068340 0.000000
v 0.081136 0.063345 0.000000
v 0.068195 0.061641 0.000000
v 0.055254 0.063345 0.000000
v 0.043195 0.068340 0.000000
v 0.032840 0.076286 0.000000
v 0.024894 0.086641 0.000000
v 0.019899 0.098700 0.000000
v 0.118195 0.111641 0.100000
v 0.116491 0.124582 0.100000
v 0.111496 0.136641 0.100000
v 0.103550 0.146997 0.100000
v 0.093195 0.154943 0.100000
v 0.081136 0.159938 0.100000
v 0.068195 0.161641 0.100000
v 0.055254 0.159938 0.100000
v 0.043195 0.154943 0.100000
v 0.032840 0.146997 0.100000
v 0.024894 0.136641 0.100000
v 0.019899 0.124582 0.100000
v 0.018195 0.111641 0.100000
v 0.019899 0.098700 0.100000
v 0.024894 0.086641 0.100000
v 0.032840 0.076286 0.100000
v 0.043195 0.068340 0.100000
v 0.055254 0.063345 0.100000
v 0.068195 0.061641 0.100000
v 0.081136 0.063345 0.100000
v 0.093195 0.068340 0.100000
v 0.103550 0.076286 0.100000
v 0.111496 0.086641 0.100000
v 0.116491 0.098700 0.100000
v 2.500000 -2.500000 0.000000
v 2.500000 2.500000 0.000000
v 2.500000 2.500000 0.100000
v 2.500000 -2.500000 0.100000
v -2.500000 -2.500000 0.000000
v -2.500000 -2.500000 0.100000
v -2.500000 2.500000 0.000000
v -2.500000 2.500000 0.100000
vt 0.045000 -0.143990 0.000000
vt -0.055000 -0.143990 0.000000
vt 0.045000 -0.157080 0.000000
vt -0.055000 -0.157080 0.000000
vt 0.045000 0.157080 0.000000
vt -0.055000 0.157080 0.000000
vt 0.045000 0.143990 0.000000
vt -0.055000 0.143990 0.000000
vt 0.045000 0.130900 0.000000
vt -0.055000 0.130900 0.000000
vt 0.045000 0.117810 0.000000
vt -0.055000 0.117810 0.000000
vt 0.045000 0.104720 0.000000
vt -0.055000 0.104720 0.000000
vt 0.045000 0.091630 0.000000
vt -0.055000 0.091630 0.000000
vt 0.045000 0.078540 0.000000
vt -0.055000 0.078540 0.000000
vt 0.045000 0.065450 0.000000
vt -0.055000 0.065450 0.000000
vt 0.045000 0.052360 0.000000
vt -0.055000 0.052360 0.000000
vt 0.045000 0.039270 0.000000
vt -0.055000 0.039270 0.000000
vt 0.045000 0.026180 0.000000
vt -0.055000 0.026180 0.000000
vt 0.045000 0.013090 0.000000
vt -0.055000 0.013090 0.000000
vt 0.045000 0.000000 0.000000
vt -0.055000 0.000000 0.000000
vt 0.045000 -0.013090 0.000000
vt -0.055000 -0.013090 0.000000
vt 0.045000 -0.026180 0.000000
vt -0.055000 -0.026180 0.000000
vt 0.045000 -0.039270 0.000000
vt -0.055000 -0.039270 0.000000
vt 0.045000 -0.052360 0.000000
vt -0.055000 -0.052360 0.000000
vt 0.045000 -0.065450 0.000000
vt -0.055000 -0.065450 0.000000
vt 0.045000 -0.078540 0.000000
vt -0.055000 -0.078540 0.000000
vt 0.045000 -0.091630 0.000000
vt -0.055000 -0.091630 0.000000
vt 0.045000 -0.104720 0.000000
vt -0.055000 -0.104720 0.000000
vt 0.045000 -0.117810 0.000000
vt -0.055000 -0.117810 0.000000
vt 0.045000 -0.130900 0.000000
vt -0.055000 -0.130900 0.000000
vt 0.000000 0.000000 0.000000
vt 5.000000 0.000000 0.000000
vt 0.000000 0.100000 0.000000
vt 5.000000 0.100000 0.000000
vt 0.000000 0.000000 0.000000
vt 5.000000 0.000000 0.000000
vt 0.000000 0.100000 0.000000
vt 5.000000 0.100000 0.000000
vt -0.000000 0.000000 0.000000
vt 5.000000 0.000000 0.000000
vt -0.000000 0.100000 0.000000
vt 5.000000 0.100000 0.000000
vt -0.000000 0.000000 0.000000
vt 5.000000 0.000000 0.000000
vt -0.000000 0.100000 0.000000
vt 5.000000 0.100000 0.000000
vt 0.116491 0.098700 0.000000
vt 2.500000 -2.500000 0.000000
vt 0.118195 0.111641 0.000000
vt 2.500000 2.500000 0.000000
vt 0.116491 0.124582 0.000000
vt 0.111496 0.136641 0.000000
vt 0.103550 0.146997 0.000000
vt 0.093195 0.154943 0.000000
vt 0.081136 0.159938 0.000000
vt 0.068195 0.161641 0.000000
vt -2.500000 2.500000 0.000000
vt 0.055254 0.159938 0.000000
vt 0.043195 0.154943 0.000000
vt 0.032840 0.146997 0.000000
vt 0.024894 0.136641 0.000000
vt 0.019899 0.124582 0.000000
vt 0.018195 0.111641 0.000000
vt -2.500000 -2.500000 0.000000
vt 0.019899 0.098700 0.000000
vt 0.024894 0.086641 0.000000
vt 0.032840 0.076286 0.000000
vt 0.043195 0.068340 0.000000
vt 0.055254 0.063345 0.000000
vt 0.068195 0.061641 0.000000
vt 0.081136 0.063345 0.000000
vt 0.093195 0.068340 0.000000
vt 0.103550 0.076286 0.000000
vt 0.111496 0.086641 0.000000
vt -0.019899 0.098700 0.000000
vt 2.500000 -2.500000 0.000000
vt -0.018195 0.111641 0.000000
vt 2.500000 2.500000 0.000000
vt -0.019899 0.124582 0.000000
vt -0.024894 0.136641 0.000000
vt -0.032840 0.146997 0.000000
vt -0.043195 0.154943 0.000000
vt -0.055254 0.159938 0.000000
vt -0.068195 0.161641 0.000000
vt -2.500000 2.500000 0.000000
vt -0.081136 0.159938 0.000000
vt -0.093195 0.154943 0.000000
vt -0.103550 0.146997 0.000000
vt -0.111496 0.136641 0.000000
vt -0.116491 0.124582 0.000000
vt -0.118195 0.111641 0.000000
vt -2.500000 -2.500000 0.000000
vt -0.116491 0.098700 0.000000
vt -0.111496 0.086641 0.000000
vt -0.103550 0.076286 0.000000
vt -0.093195 0.068340 0.000000
vt -0.081136 0.063345 0.000000
vt -0.068195 0.061641 0.000000
vt -0.055254 0.063345 0.000000
vt -0.043195 0.068340 0.000000
vt -0.032840 0.076286 0.000000
vt -0.024894 0.086641 0.000000
vn 0.965926 -0.258819 0.000000
vn 0.965926 -0.258819 0.000000
vn 1.000000 -0.000000 0.000000
vn 1.000000 -0.000000 0.000000
vn 0.965926 0.258819 0.000000
vn 0.965926 0.258819 0.000000
vn 0.866025 0.500000 0.000000
vn 0.866025 0.500000 0.000000
vn 0.707107 0.707107 0.000000
vn 0.707107 0.707107 0.000000
vn 0.500000 0.866025 0.000000
vn 0.500000 0.866025 0.000000
vn 0.258819 0.965926 0.000000
vn 0.258819 0.965926 0.000000
vn -0.000000 1.000000 0.000000
vn -0.000000 1.000000 0.000000
vn -0.258819 0.965926 0.000000
vn -0.258819 0.965926 0.000000
vn -0.500000 0.866025 0.000000
vn -0.500000 0.866025 0.000000
vn -0.707107 0.707107 0.000000
vn -0.707107 0.707107 0.000000
vn -0.866025 0.500000 0.000000
vn -0.866025 0.500000 0.000000
vn -0.965926 0.258819 0.000000
vn -0.965926 0.258819 0.000000
vn -1.000000 -0.000000 -0.000000
vn -1.000000 -0.000000 -0.000000
vn -0.965926 -0.258819 -0.000000
vn -0.965926 -0.258819 -0.000000
vn -0.866025 -0.500000 -0.000000
vn -0.866025 -0.500000 -0.000000
vn -0.707107 -0.707107 -0.000000
vn -0.707107 -0.707107 -0.000000
vn -0.500000 -0.866025 -0.000000
vn -0.500000 -0.866025 -0.000000
vn -0.258819 -0.965926 -0.000000
vn -0.258819 -0.965926 -0.000000
vn -0.000000 -1.000000 -0.000000
vn 0.000000 -1.000000 0.000000
vn 0.258819 -0.965926 0.000000
vn 0.258819 -0.965926 0.000000
vn 0.500000 -0.866025 0.000000
vn 0.500000 -0.866025 0.000000
vn 0.707107 -0.707107 0.000000
vn 0.707107 -0.707107 0.000000
vn 0.866025 -0.500000 0.000000
vn 0.866025 -0.500000 0.000000
vn 1.000000 0.000000 -0.000000
vn 1.000000 0.000000 -0.000000
vn 1.000000 0.000000 -0.000000
vn 1.000000 0.000000 -0.000000
vn 0.000000 -1.000000 0.000000
vn 0.000000 -1.000000 0.000000
vn 0.000000 -1.000000 0.000000
vn 0.000000 -1.000000 0.000000
vn -1.000000 0.000000 0.000000
vn -1.000000 0.000000 0.000000
vn -1.000000 0.000000 0.000000
vn -1.000000 0.000000 0.000000
vn 0.000000 1.000000 0.000000
vn 0.000000 1.000000 0.000000
vn 0.000000 1.000000 0.000000
vn 0.000000 1.000000 0.000000
vn 0.000000 0.000000 1.000000
vn 0.000000 0.000000 1.000000
vn 0.000000 0.000000 1.000000
vn 0.000000 0.000000 1.000000
vn 0.000000 0.000000 1.000000
vn 0.000000 0.000000 1.000000
vn 0.000000 0.000000 1.000000
vn 0.000000 0.000000 1.000000
vn 0.000000 0.000000 1.000000
vn 0.000000 0.000000 1.000000
vn 0.000000 0.000000 1.000000
vn 0.000000 0.000000 1.000000
vn 0.000000 0.000000 1.000000
vn 0.000000 0.000000 1.000000
vn 0.000000 0.000000 1.000000
vn 0.000000 0.000000 1.000000
vn 0.000000 0.000000 1.000000
vn 0.000000 0.000000 1.000000
vn 0.000000 0.000000 1.000000
vn 0.000000 0.000000 1.000000
vn 0.000000 0.000000 1.000000
vn 0.000000 0.000000 1.000000
vn 0.000000 0.000000 1.000000
vn 0.000000 0.000000 1.000000
vn 0.000000 0.000000 1.000000
vn 0.000000 0.000000 1.000000
vn 0.000000 0.000000 1.000000
vn 0.000000 0.000000 1.000000
vn -0.000000 0.000000 -1.000000
vn -0.000000 0.000000 -1.000000
vn -0.000000 0.000000 -1.000000
vn -0.000000 0.000000 -1.000000
vn -0.000000 0.000000 -1.000000
vn -0.000000 0.000000 -1.000000
vn -0.000000 0.000000 -1.000000
vn -0.000000 0.000000 -1.000000
vn -0.000000 0.000000 -1.000000
vn -0.000000 0.000000 -1.000000
vn -0.000000 0.000000 -1.000000
vn -0.000000 0.000000 -1.000000
vn -0.000000 0.000000 -1.000000
vn -0.000000 0.000000 -1.000000
vn -0.000000 0.000000 -1.000000
vn -0.000000 0.000000 -1.000000
vn -0.000000 0.000000 -1.000000
vn -0.000000 0.000000 -1.000000
vn -0.000000 0.000000 -1.000000
vn -0.000000 0.000000 -1.000000
vn -0.000000 0.000000 -1.000000
vn -0.000000 0.000000 -1.000000
vn -0.000000 0.000000 -1.000000
vn -0.000000 0.000000 -1.000000
vn -0.000000 0.000000 -1.000000
vn -0.000000 0.000000 -1.000000
vn -0.000000 0.000000 -1.000000
vn -0.000000 0.000000 -1.000000
usemtl Steel_-_Satin
f 2/1/1 36/2/2 1/3/3
f 1/3/3 36/2/2 37/4/4
f 1/5/3 37/6/4 24/7/5
f 24/7/5 37/6/4 38/8/6
f 24/7/5 38/8/6 23/9/7
f 23/9/7 38/8/6 39/10/8
f 23/9/7 39/10/8 22/11/9
f 22/11/9 39/10/8 40/12/10
f 22/11/9 40/12/10 21/13/11
f 21/13/11 40/12/10 41/14/12
f 21/13/11 41/14/12 20/15/13
f 20/15/13 41/14/12 42/16/14
f 20/15/13 42/16/14 19/17/15
f 19/17/15 42/16/14 43/18/16
f 19/17/15 43/18/16 18/19/17
f 18/19/17 43/18/16 44/20/18
f 18/19/17 44/20/18 17/21/19
f 17/21/19 44/20/18 45/22/20
f 17/21/19 45/22/20 16/23/21
f 16/23/21 45/22/20 46/24/22
f 16/23/21 46/24/22 15/25/23
f 15/25/23 46/24/22 47/26/24
f 15/25/23 47/26/24 14/27/25
f 14/27/25 47/26/24 48/28/26
f 14/27/25 48/28/26 13/29/27
f 13/29/27 48/28/26 25/30/28
f 13/29/27 25/30/28 12/31/29
f 12/31/29 25/30/28 26/32/30
f 12/31/29 26/32/30 11/33/31
f 11/33/31 26/32/30 27/34/32
f 11/33/31 27/34/32 10/35/33
f 10/35/33 27/34/32 28/36/34
f 10/35/33 28/36/34 9/37/35
f 9/37/35 28/36/34 29/38/36
f 9/37/35 29/38/36 8/39/37
f 8/39/37 29/38/36 30/40/38
f 8/39/37 30/40/38 7/41/39
f 7/41/39 30/40/38 31/42/40
f 7/41/39 31/42/40 6/43/41
f 6/43/41 31/42/40 32/44/42
f 6/43/41 32/44/42 5/45/43
f 5/45/43 32/44/42 33/46/44
f 5/45/43 33/46/44 4/47/45
f 4/47/45 33/46/44 34/48/46
f 4/47/45 34/48/46 3/49/47
f 3/49/47 34/48/46 35/50/48
f 3/49/47 35/50/48 2/1/1
f 2/1/1 35/50/48 36/2/2
f 49/51/49 50/52/50 52/53/51
f 52/53/51 50/52/50 51/54/52
f 53/55/53 49/56/54 54/57/55
f 54/57/55 49/56/54 52/58/56
f 55/59/57 53/60/58 56/61/59
f 56/61/59 53/60/58 54/62/60
f 50/63/61 55/64/62 51/65/63
f 51/65/63 55/64/62 56/66/64
f 48/67/65 52/68/66 25/69/67
f 25/69/67 52/68/66 51/70/68
f 25/69/67 51/70/68 26/71/69
f 26/71/69 51/70/68 27/72/70
f 27/72/70 51/70/68 28/73/71
f 28/73/71 51/70/68 29/74/72
f 29/74/72 51/70/68 30/75/73
f 30/75/73 51/70/68 31/76/74
f 31/76/74 51/70/68 56/77/75
f 31/76/74 56/77/75 32/78/76
f 32/78/76 56/77/75 33/79/77
f 33/79/77 56/77/75 34/80/78
f 34/80/78 56/77/75 35/81/79
f 35/81/79 56/77/75 36/82/80
f 36/82/80 56/77/75 37/83/81
f 37/83/81 56/77/75 54/84/82
f 37/83/81 54/84/82 38/85/83
f 38/85/83 54/84/82 39/86/84
f 39/86/84 54/84/82 40/87/85
f 40/87/85 54/84/82 41/88/86
f 41/88/86 54/84/82 42/89/87
f 42/89/87 54/84/82 43/90/88
f 43/90/88 54/84/82 52/68/66
f 43/90/88 52/68/66 44/91/89
f 44/91/89 52/68/66 45/92/90
f 45/92/90 52/68/66 46/93/91
f 46/93/91 52/68/66 47/94/92
f 47/94/92 52/68/66 48/67/65
f 24/95/93 53/96/94 1/97/95
f 1/97/95 53/96/94 55/98/96
f 1/97/95 55/98/96 2/99/97
f 2/99/97 55/98/96 3/100/98
f 3/100/98 55/98/96 4/101/99
f 4/101/99 55/98/96 5/102/100
f 5/102/100 55/98/96 6/103/101
f 6/103/101 55/98/96 7/104/102
f 7/104/102 55/98/96 50/105/103
f 7/104/102 50/105/103 8/106/104
f 8/106/104 50/105/103 9/107/105
f 9/107/105 50/105/103 10/108/106
f 10/108/106 50/105/103 11/109/107
f 11/109/107 50/105/103 12/110/108
f 12/110/108 50/105/103 13/111/109
f 13/111/109 50/105/103 49/112/110
f 13/111/109 49/112/110 14/113/111
f 14/113/111 49/112/110 15/114/112
f 15/114/112 49/112/110 16/115/113
f 16/115/113 49/112/110 17/116/114
f 17/116/114 49/112/110 18/117/115
f 18/117/115 49/112/110 19/118/116
f 19/118/116 49/112/110 53/96/94
f 19/118/116 53/96/94 20/119/117
f 20/119/117 53/96/94 21/120/118
f 21/120/118 53/96/94 22/121/119
f 22/121/119 53/96/94 23/122/120
f 23/122/120 53/96/94 24/95/93
# 56 vertices
# 122 texture params
# 120 normals
# 112 facets

# 1 groups
